<mxfile host="app.diagrams.net" modified="2021-04-26T07:50:12.889Z" agent="5.0 (Windows NT 10.0; Win64; x64) AppleWebKit/537.36 (KHTML, like Gecko) Chrome/90.0.4430.85 Safari/537.36 Edg/90.0.818.46" etag="KfgsqxX1TcuMqaX1ga5S" version="14.6.6" type="github">
  <diagram name="Page-1" id="b5b7bab2-c9e2-2cf4-8b2a-24fd1a2a6d21">
    <mxGraphModel dx="1874" dy="1963" grid="1" gridSize="10" guides="1" tooltips="1" connect="1" arrows="1" fold="1" page="1" pageScale="1" pageWidth="827" pageHeight="1169" background="#ffffff" math="0" shadow="0">
      <root>
        <mxCell id="0" />
        <mxCell id="1" parent="0" />
        <mxCell id="C-2h_M_YmA_aKoKcY5in-6" value="CarFactory(interface)" style="swimlane;fontStyle=1;align=center;verticalAlign=top;childLayout=stackLayout;horizontal=1;startSize=26;horizontalStack=0;resizeParent=1;resizeParentMax=0;resizeLast=0;collapsible=1;marginBottom=0;" vertex="1" parent="1">
          <mxGeometry x="360" y="30" width="320" height="110" as="geometry">
            <mxRectangle x="360" y="30" width="150" height="26" as="alternateBounds" />
          </mxGeometry>
        </mxCell>
        <mxCell id="C-2h_M_YmA_aKoKcY5in-7" value="+produceCar(): Car&#xa;+produceSUV(): SUV&#xa;+getName():  String&#xa;+equip(): CarSUV&#xa;+setCarSUVBuilder(CarSUVBuilder carSUVBuilder): void" style="text;strokeColor=none;fillColor=none;align=left;verticalAlign=top;spacingLeft=4;spacingRight=4;overflow=hidden;rotatable=0;points=[[0,0.5],[1,0.5]];portConstraint=eastwest;" vertex="1" parent="C-2h_M_YmA_aKoKcY5in-6">
          <mxGeometry y="26" width="320" height="84" as="geometry" />
        </mxCell>
        <mxCell id="C-2h_M_YmA_aKoKcY5in-10" value="AudiFactory" style="swimlane;fontStyle=1;align=center;verticalAlign=top;childLayout=stackLayout;horizontal=1;startSize=30;horizontalStack=0;resizeParent=1;resizeParentMax=0;resizeLast=0;collapsible=1;marginBottom=0;" vertex="1" parent="1">
          <mxGeometry x="10" y="170" width="320" height="146" as="geometry">
            <mxRectangle x="200" y="20" width="150" height="26" as="alternateBounds" />
          </mxGeometry>
        </mxCell>
        <mxCell id="C-2h_M_YmA_aKoKcY5in-16" value="-carSUVBuilder : CarSUVBuilder" style="text;strokeColor=none;fillColor=none;align=left;verticalAlign=top;spacingLeft=4;spacingRight=4;overflow=hidden;rotatable=0;points=[[0,0.5],[1,0.5]];portConstraint=eastwest;" vertex="1" parent="C-2h_M_YmA_aKoKcY5in-10">
          <mxGeometry y="30" width="320" height="26" as="geometry" />
        </mxCell>
        <mxCell id="C-2h_M_YmA_aKoKcY5in-11" value="+produceCar(): Car&#xa;+produceSUV(): SUV&#xa;+getName():  String&#xa;+equip(): CarSUV&#xa;+setCarSUVBuilder(CarSUVBuilder carSUVBuilder): void" style="text;strokeColor=none;fillColor=none;align=left;verticalAlign=top;spacingLeft=4;spacingRight=4;overflow=hidden;rotatable=0;points=[[0,0.5],[1,0.5]];portConstraint=eastwest;" vertex="1" parent="C-2h_M_YmA_aKoKcY5in-10">
          <mxGeometry y="56" width="320" height="90" as="geometry" />
        </mxCell>
        <mxCell id="C-2h_M_YmA_aKoKcY5in-17" value="MercedesFactory" style="swimlane;fontStyle=1;align=center;verticalAlign=top;childLayout=stackLayout;horizontal=1;startSize=30;horizontalStack=0;resizeParent=1;resizeParentMax=0;resizeLast=0;collapsible=1;marginBottom=0;" vertex="1" parent="1">
          <mxGeometry x="360" y="170" width="320" height="146" as="geometry">
            <mxRectangle x="200" y="20" width="150" height="26" as="alternateBounds" />
          </mxGeometry>
        </mxCell>
        <mxCell id="C-2h_M_YmA_aKoKcY5in-18" value="-carSUVBuilder : CarSUVBuilder" style="text;strokeColor=none;fillColor=none;align=left;verticalAlign=top;spacingLeft=4;spacingRight=4;overflow=hidden;rotatable=0;points=[[0,0.5],[1,0.5]];portConstraint=eastwest;" vertex="1" parent="C-2h_M_YmA_aKoKcY5in-17">
          <mxGeometry y="30" width="320" height="26" as="geometry" />
        </mxCell>
        <mxCell id="C-2h_M_YmA_aKoKcY5in-19" value="+produceCar(): Car&#xa;+produceSUV(): SUV&#xa;+getName():  String&#xa;+equip(): CarSUV&#xa;+setCarSUVBuilder(CarSUVBuilder carSUVBuilder): void" style="text;strokeColor=none;fillColor=none;align=left;verticalAlign=top;spacingLeft=4;spacingRight=4;overflow=hidden;rotatable=0;points=[[0,0.5],[1,0.5]];portConstraint=eastwest;" vertex="1" parent="C-2h_M_YmA_aKoKcY5in-17">
          <mxGeometry y="56" width="320" height="90" as="geometry" />
        </mxCell>
        <mxCell id="C-2h_M_YmA_aKoKcY5in-20" value="BMWFactory" style="swimlane;fontStyle=1;align=center;verticalAlign=top;childLayout=stackLayout;horizontal=1;startSize=30;horizontalStack=0;resizeParent=1;resizeParentMax=0;resizeLast=0;collapsible=1;marginBottom=0;" vertex="1" parent="1">
          <mxGeometry x="710" y="170" width="320" height="146" as="geometry">
            <mxRectangle x="200" y="20" width="150" height="26" as="alternateBounds" />
          </mxGeometry>
        </mxCell>
        <mxCell id="C-2h_M_YmA_aKoKcY5in-21" value="-carSUVBuilder : CarSUVBuilder" style="text;strokeColor=none;fillColor=none;align=left;verticalAlign=top;spacingLeft=4;spacingRight=4;overflow=hidden;rotatable=0;points=[[0,0.5],[1,0.5]];portConstraint=eastwest;" vertex="1" parent="C-2h_M_YmA_aKoKcY5in-20">
          <mxGeometry y="30" width="320" height="26" as="geometry" />
        </mxCell>
        <mxCell id="C-2h_M_YmA_aKoKcY5in-22" value="+produceCar(): Car&#xa;+produceSUV(): SUV&#xa;+getName():  String&#xa;+equip(): CarSUV&#xa;+setCarSUVBuilder(CarSUVBuilder carSUVBuilder): void" style="text;strokeColor=none;fillColor=none;align=left;verticalAlign=top;spacingLeft=4;spacingRight=4;overflow=hidden;rotatable=0;points=[[0,0.5],[1,0.5]];portConstraint=eastwest;" vertex="1" parent="C-2h_M_YmA_aKoKcY5in-20">
          <mxGeometry y="56" width="320" height="90" as="geometry" />
        </mxCell>
        <mxCell id="C-2h_M_YmA_aKoKcY5in-23" value="" style="endArrow=block;dashed=1;endFill=0;endSize=12;html=1;entryX=0.003;entryY=0.298;entryDx=0;entryDy=0;entryPerimeter=0;" edge="1" parent="1" target="C-2h_M_YmA_aKoKcY5in-7">
          <mxGeometry width="160" relative="1" as="geometry">
            <mxPoint x="200" y="168" as="sourcePoint" />
            <mxPoint x="360" y="85" as="targetPoint" />
            <Array as="points">
              <mxPoint x="200" y="80" />
            </Array>
          </mxGeometry>
        </mxCell>
        <mxCell id="C-2h_M_YmA_aKoKcY5in-24" value="" style="endArrow=block;dashed=1;endFill=0;endSize=12;html=1;" edge="1" parent="1">
          <mxGeometry width="160" relative="1" as="geometry">
            <mxPoint x="520" y="170" as="sourcePoint" />
            <mxPoint x="519.5" y="140" as="targetPoint" />
          </mxGeometry>
        </mxCell>
        <mxCell id="C-2h_M_YmA_aKoKcY5in-25" value="" style="endArrow=block;dashed=1;endFill=0;endSize=12;html=1;entryX=1.009;entryY=0.298;entryDx=0;entryDy=0;entryPerimeter=0;" edge="1" parent="1" target="C-2h_M_YmA_aKoKcY5in-7">
          <mxGeometry width="160" relative="1" as="geometry">
            <mxPoint x="840" y="168" as="sourcePoint" />
            <mxPoint x="950" y="80" as="targetPoint" />
            <Array as="points">
              <mxPoint x="840" y="81" />
            </Array>
          </mxGeometry>
        </mxCell>
        <mxCell id="C-2h_M_YmA_aKoKcY5in-27" value="return" style="html=1;verticalAlign=bottom;endArrow=open;dashed=1;endSize=8;exitX=0.1;exitY=1.033;exitDx=0;exitDy=0;exitPerimeter=0;entryX=0;entryY=0.5;entryDx=0;entryDy=0;" edge="1" parent="1" source="C-2h_M_YmA_aKoKcY5in-11" target="C-2h_M_YmA_aKoKcY5in-29">
          <mxGeometry x="-0.1386" y="-1" relative="1" as="geometry">
            <mxPoint x="130" y="350" as="sourcePoint" />
            <mxPoint x="128" y="503" as="targetPoint" />
            <Array as="points">
              <mxPoint x="40" y="510" />
            </Array>
            <mxPoint as="offset" />
          </mxGeometry>
        </mxCell>
        <mxCell id="C-2h_M_YmA_aKoKcY5in-28" value="AudiCar" style="swimlane;fontStyle=0;childLayout=stackLayout;horizontal=1;startSize=26;fillColor=none;horizontalStack=0;resizeParent=1;resizeParentMax=0;resizeLast=0;collapsible=1;marginBottom=0;" vertex="1" parent="1">
          <mxGeometry x="130" y="470" width="140" height="52" as="geometry" />
        </mxCell>
        <mxCell id="C-2h_M_YmA_aKoKcY5in-29" value="+produce() : void&#xa;" style="text;strokeColor=none;fillColor=none;align=left;verticalAlign=top;spacingLeft=4;spacingRight=4;overflow=hidden;rotatable=0;points=[[0,0.5],[1,0.5]];portConstraint=eastwest;" vertex="1" parent="C-2h_M_YmA_aKoKcY5in-28">
          <mxGeometry y="26" width="140" height="26" as="geometry" />
        </mxCell>
        <mxCell id="C-2h_M_YmA_aKoKcY5in-32" value="AudiSUV" style="swimlane;fontStyle=0;childLayout=stackLayout;horizontal=1;startSize=26;fillColor=none;horizontalStack=0;resizeParent=1;resizeParentMax=0;resizeLast=0;collapsible=1;marginBottom=0;" vertex="1" parent="1">
          <mxGeometry x="130" y="670" width="140" height="52" as="geometry" />
        </mxCell>
        <mxCell id="C-2h_M_YmA_aKoKcY5in-33" value="+produce() : void&#xa;" style="text;strokeColor=none;fillColor=none;align=left;verticalAlign=top;spacingLeft=4;spacingRight=4;overflow=hidden;rotatable=0;points=[[0,0.5],[1,0.5]];portConstraint=eastwest;" vertex="1" parent="C-2h_M_YmA_aKoKcY5in-32">
          <mxGeometry y="26" width="140" height="26" as="geometry" />
        </mxCell>
        <mxCell id="C-2h_M_YmA_aKoKcY5in-34" value="return" style="html=1;verticalAlign=bottom;endArrow=open;dashed=1;endSize=8;entryX=0;entryY=0.5;entryDx=0;entryDy=0;" edge="1" parent="1">
          <mxGeometry relative="1" as="geometry">
            <mxPoint x="40" y="490" as="sourcePoint" />
            <mxPoint x="130" y="705.52" as="targetPoint" />
            <Array as="points">
              <mxPoint x="40" y="706.52" />
            </Array>
          </mxGeometry>
        </mxCell>
        <mxCell id="C-2h_M_YmA_aKoKcY5in-36" value="Car(interface)" style="swimlane;fontStyle=0;childLayout=stackLayout;horizontal=1;startSize=26;fillColor=none;horizontalStack=0;resizeParent=1;resizeParentMax=0;resizeLast=0;collapsible=1;marginBottom=0;" vertex="1" parent="1">
          <mxGeometry x="450" y="360" width="140" height="52" as="geometry" />
        </mxCell>
        <mxCell id="C-2h_M_YmA_aKoKcY5in-37" value="produce() : void&#xa;" style="text;strokeColor=none;fillColor=none;align=left;verticalAlign=top;spacingLeft=4;spacingRight=4;overflow=hidden;rotatable=0;points=[[0,0.5],[1,0.5]];portConstraint=eastwest;" vertex="1" parent="C-2h_M_YmA_aKoKcY5in-36">
          <mxGeometry y="26" width="140" height="26" as="geometry" />
        </mxCell>
        <mxCell id="C-2h_M_YmA_aKoKcY5in-38" value="SUV(interface)" style="swimlane;fontStyle=0;childLayout=stackLayout;horizontal=1;startSize=26;fillColor=none;horizontalStack=0;resizeParent=1;resizeParentMax=0;resizeLast=0;collapsible=1;marginBottom=0;" vertex="1" parent="1">
          <mxGeometry x="450" y="585" width="140" height="52" as="geometry" />
        </mxCell>
        <mxCell id="C-2h_M_YmA_aKoKcY5in-39" value="produce() : void&#xa;" style="text;strokeColor=none;fillColor=none;align=left;verticalAlign=top;spacingLeft=4;spacingRight=4;overflow=hidden;rotatable=0;points=[[0,0.5],[1,0.5]];portConstraint=eastwest;" vertex="1" parent="C-2h_M_YmA_aKoKcY5in-38">
          <mxGeometry y="26" width="140" height="26" as="geometry" />
        </mxCell>
        <mxCell id="C-2h_M_YmA_aKoKcY5in-41" value="AudiCar" style="swimlane;fontStyle=0;childLayout=stackLayout;horizontal=1;startSize=26;fillColor=none;horizontalStack=0;resizeParent=1;resizeParentMax=0;resizeLast=0;collapsible=1;marginBottom=0;" vertex="1" parent="1">
          <mxGeometry x="450" y="470" width="140" height="52" as="geometry" />
        </mxCell>
        <mxCell id="C-2h_M_YmA_aKoKcY5in-42" value="+produce() : void&#xa;" style="text;strokeColor=none;fillColor=none;align=left;verticalAlign=top;spacingLeft=4;spacingRight=4;overflow=hidden;rotatable=0;points=[[0,0.5],[1,0.5]];portConstraint=eastwest;" vertex="1" parent="C-2h_M_YmA_aKoKcY5in-41">
          <mxGeometry y="26" width="140" height="26" as="geometry" />
        </mxCell>
        <mxCell id="C-2h_M_YmA_aKoKcY5in-43" value="AudiCar" style="swimlane;fontStyle=0;childLayout=stackLayout;horizontal=1;startSize=26;fillColor=none;horizontalStack=0;resizeParent=1;resizeParentMax=0;resizeLast=0;collapsible=1;marginBottom=0;" vertex="1" parent="1">
          <mxGeometry x="800" y="470" width="140" height="52" as="geometry" />
        </mxCell>
        <mxCell id="C-2h_M_YmA_aKoKcY5in-44" value="+produce() : void&#xa;" style="text;strokeColor=none;fillColor=none;align=left;verticalAlign=top;spacingLeft=4;spacingRight=4;overflow=hidden;rotatable=0;points=[[0,0.5],[1,0.5]];portConstraint=eastwest;" vertex="1" parent="C-2h_M_YmA_aKoKcY5in-43">
          <mxGeometry y="26" width="140" height="26" as="geometry" />
        </mxCell>
        <mxCell id="C-2h_M_YmA_aKoKcY5in-45" value="return" style="html=1;verticalAlign=bottom;endArrow=open;dashed=1;endSize=8;exitX=0.1;exitY=1.033;exitDx=0;exitDy=0;exitPerimeter=0;" edge="1" parent="1">
          <mxGeometry x="-0.1386" y="-1" relative="1" as="geometry">
            <mxPoint x="371" y="316" as="sourcePoint" />
            <mxPoint x="450" y="506" as="targetPoint" />
            <Array as="points">
              <mxPoint x="369" y="507.03" />
            </Array>
            <mxPoint as="offset" />
          </mxGeometry>
        </mxCell>
        <mxCell id="C-2h_M_YmA_aKoKcY5in-46" value="return" style="html=1;verticalAlign=bottom;endArrow=open;dashed=1;endSize=8;" edge="1" parent="1">
          <mxGeometry x="0.21" relative="1" as="geometry">
            <mxPoint x="369" y="490" as="sourcePoint" />
            <mxPoint x="450" y="705.49" as="targetPoint" />
            <Array as="points">
              <mxPoint x="369" y="706.52" />
            </Array>
            <mxPoint as="offset" />
          </mxGeometry>
        </mxCell>
        <mxCell id="C-2h_M_YmA_aKoKcY5in-47" value="AudiSUV" style="swimlane;fontStyle=0;childLayout=stackLayout;horizontal=1;startSize=26;fillColor=none;horizontalStack=0;resizeParent=1;resizeParentMax=0;resizeLast=0;collapsible=1;marginBottom=0;" vertex="1" parent="1">
          <mxGeometry x="800" y="670" width="140" height="52" as="geometry" />
        </mxCell>
        <mxCell id="C-2h_M_YmA_aKoKcY5in-48" value="+produce() : void&#xa;" style="text;strokeColor=none;fillColor=none;align=left;verticalAlign=top;spacingLeft=4;spacingRight=4;overflow=hidden;rotatable=0;points=[[0,0.5],[1,0.5]];portConstraint=eastwest;" vertex="1" parent="C-2h_M_YmA_aKoKcY5in-47">
          <mxGeometry y="26" width="140" height="26" as="geometry" />
        </mxCell>
        <mxCell id="C-2h_M_YmA_aKoKcY5in-49" value="AudiSUV" style="swimlane;fontStyle=0;childLayout=stackLayout;horizontal=1;startSize=26;fillColor=none;horizontalStack=0;resizeParent=1;resizeParentMax=0;resizeLast=0;collapsible=1;marginBottom=0;" vertex="1" parent="1">
          <mxGeometry x="450" y="670" width="140" height="52" as="geometry" />
        </mxCell>
        <mxCell id="C-2h_M_YmA_aKoKcY5in-50" value="+produce() : void&#xa;" style="text;strokeColor=none;fillColor=none;align=left;verticalAlign=top;spacingLeft=4;spacingRight=4;overflow=hidden;rotatable=0;points=[[0,0.5],[1,0.5]];portConstraint=eastwest;" vertex="1" parent="C-2h_M_YmA_aKoKcY5in-49">
          <mxGeometry y="26" width="140" height="26" as="geometry" />
        </mxCell>
        <mxCell id="C-2h_M_YmA_aKoKcY5in-51" value="return" style="html=1;verticalAlign=bottom;endArrow=open;dashed=1;endSize=8;exitX=0.1;exitY=1.033;exitDx=0;exitDy=0;exitPerimeter=0;" edge="1" parent="1">
          <mxGeometry x="-0.1386" y="-1" relative="1" as="geometry">
            <mxPoint x="721" y="316" as="sourcePoint" />
            <mxPoint x="800" y="506" as="targetPoint" />
            <Array as="points">
              <mxPoint x="719" y="507.03" />
            </Array>
            <mxPoint as="offset" />
          </mxGeometry>
        </mxCell>
        <mxCell id="C-2h_M_YmA_aKoKcY5in-52" value="return" style="html=1;verticalAlign=bottom;endArrow=open;dashed=1;endSize=8;" edge="1" parent="1">
          <mxGeometry x="0.1825" relative="1" as="geometry">
            <mxPoint x="719" y="500" as="sourcePoint" />
            <mxPoint x="800" y="705.49" as="targetPoint" />
            <Array as="points">
              <mxPoint x="719" y="706.52" />
            </Array>
            <mxPoint as="offset" />
          </mxGeometry>
        </mxCell>
        <mxCell id="C-2h_M_YmA_aKoKcY5in-53" value="" style="endArrow=block;dashed=1;endFill=0;endSize=12;html=1;entryX=-0.007;entryY=0;entryDx=0;entryDy=0;entryPerimeter=0;" edge="1" parent="1" target="C-2h_M_YmA_aKoKcY5in-37">
          <mxGeometry width="160" relative="1" as="geometry">
            <mxPoint x="200" y="470" as="sourcePoint" />
            <mxPoint x="360" y="386.5" as="targetPoint" />
            <Array as="points">
              <mxPoint x="200" y="387" />
            </Array>
          </mxGeometry>
        </mxCell>
        <mxCell id="C-2h_M_YmA_aKoKcY5in-54" value="" style="endArrow=block;dashed=1;endFill=0;endSize=12;html=1;entryX=1.014;entryY=-0.038;entryDx=0;entryDy=0;entryPerimeter=0;" edge="1" parent="1" target="C-2h_M_YmA_aKoKcY5in-37">
          <mxGeometry width="160" relative="1" as="geometry">
            <mxPoint x="867" y="470" as="sourcePoint" />
            <mxPoint x="710.0000000000001" y="393.03200000000004" as="targetPoint" />
            <Array as="points">
              <mxPoint x="867" y="385" />
            </Array>
          </mxGeometry>
        </mxCell>
        <mxCell id="C-2h_M_YmA_aKoKcY5in-55" value="" style="endArrow=block;dashed=1;endFill=0;endSize=12;html=1;exitX=0.5;exitY=0;exitDx=0;exitDy=0;entryX=0.507;entryY=1.077;entryDx=0;entryDy=0;entryPerimeter=0;" edge="1" parent="1" source="C-2h_M_YmA_aKoKcY5in-41" target="C-2h_M_YmA_aKoKcY5in-37">
          <mxGeometry width="160" relative="1" as="geometry">
            <mxPoint x="510.5" y="450" as="sourcePoint" />
            <mxPoint x="510" y="420" as="targetPoint" />
            <Array as="points" />
          </mxGeometry>
        </mxCell>
        <mxCell id="C-2h_M_YmA_aKoKcY5in-56" value="" style="endArrow=block;dashed=1;endFill=0;endSize=12;html=1;entryX=-0.007;entryY=0;entryDx=0;entryDy=0;entryPerimeter=0;" edge="1" parent="1">
          <mxGeometry width="160" relative="1" as="geometry">
            <mxPoint x="201" y="670" as="sourcePoint" />
            <mxPoint x="450" y="610" as="targetPoint" />
            <Array as="points">
              <mxPoint x="200.98" y="611" />
            </Array>
          </mxGeometry>
        </mxCell>
        <mxCell id="C-2h_M_YmA_aKoKcY5in-57" value="" style="endArrow=block;dashed=1;endFill=0;endSize=12;html=1;entryX=1.014;entryY=-0.038;entryDx=0;entryDy=0;entryPerimeter=0;" edge="1" parent="1">
          <mxGeometry width="160" relative="1" as="geometry">
            <mxPoint x="865" y="670" as="sourcePoint" />
            <mxPoint x="590" y="610.012" as="targetPoint" />
            <Array as="points">
              <mxPoint x="865.04" y="610" />
            </Array>
          </mxGeometry>
        </mxCell>
        <mxCell id="C-2h_M_YmA_aKoKcY5in-58" value="" style="endArrow=block;dashed=1;endFill=0;endSize=12;html=1;entryX=0.507;entryY=1.077;entryDx=0;entryDy=0;entryPerimeter=0;" edge="1" parent="1">
          <mxGeometry width="160" relative="1" as="geometry">
            <mxPoint x="520" y="670" as="sourcePoint" />
            <mxPoint x="520.48" y="637.002" as="targetPoint" />
            <Array as="points" />
          </mxGeometry>
        </mxCell>
        <mxCell id="C-2h_M_YmA_aKoKcY5in-63" value="CarSUVBuilder(abstract)" style="swimlane;fontStyle=1;align=center;verticalAlign=top;childLayout=stackLayout;horizontal=1;startSize=26;horizontalStack=0;resizeParent=1;resizeParentMax=0;resizeLast=0;collapsible=1;marginBottom=0;" vertex="1" parent="1">
          <mxGeometry x="1320" y="183" width="320" height="120" as="geometry">
            <mxRectangle x="360" y="30" width="150" height="26" as="alternateBounds" />
          </mxGeometry>
        </mxCell>
        <mxCell id="C-2h_M_YmA_aKoKcY5in-65" value="- carSUV : CarSUV=new CarSUV()" style="text;strokeColor=none;fillColor=none;align=left;verticalAlign=top;spacingLeft=4;spacingRight=4;overflow=hidden;rotatable=0;points=[[0,0.5],[1,0.5]];portConstraint=eastwest;" vertex="1" parent="C-2h_M_YmA_aKoKcY5in-63">
          <mxGeometry y="26" width="320" height="26" as="geometry" />
        </mxCell>
        <mxCell id="C-2h_M_YmA_aKoKcY5in-64" value="+buildChassis(): void&#xa;+buildEngine(): void&#xa;+buildChangeSpeed(): void&#xa;+getCarSUV(): CarSUV" style="text;strokeColor=none;fillColor=none;align=left;verticalAlign=top;spacingLeft=4;spacingRight=4;overflow=hidden;rotatable=0;points=[[0,0.5],[1,0.5]];portConstraint=eastwest;" vertex="1" parent="C-2h_M_YmA_aKoKcY5in-63">
          <mxGeometry y="52" width="320" height="68" as="geometry" />
        </mxCell>
        <mxCell id="C-2h_M_YmA_aKoKcY5in-66" value="EngineBuilderA" style="swimlane;fontStyle=1;align=center;verticalAlign=top;childLayout=stackLayout;horizontal=1;startSize=26;horizontalStack=0;resizeParent=1;resizeParentMax=0;resizeLast=0;collapsible=1;marginBottom=0;" vertex="1" parent="1">
          <mxGeometry x="1050" y="456" width="320" height="80" as="geometry">
            <mxRectangle x="360" y="30" width="150" height="26" as="alternateBounds" />
          </mxGeometry>
        </mxCell>
        <mxCell id="C-2h_M_YmA_aKoKcY5in-68" value="+buildChassis(): void&#xa;+buildEngine(): void&#xa;+buildChangeSpeed(): void" style="text;strokeColor=none;fillColor=none;align=left;verticalAlign=top;spacingLeft=4;spacingRight=4;overflow=hidden;rotatable=0;points=[[0,0.5],[1,0.5]];portConstraint=eastwest;" vertex="1" parent="C-2h_M_YmA_aKoKcY5in-66">
          <mxGeometry y="26" width="320" height="54" as="geometry" />
        </mxCell>
        <mxCell id="C-2h_M_YmA_aKoKcY5in-72" value="EngineBuilderB" style="swimlane;fontStyle=1;align=center;verticalAlign=top;childLayout=stackLayout;horizontal=1;startSize=26;horizontalStack=0;resizeParent=1;resizeParentMax=0;resizeLast=0;collapsible=1;marginBottom=0;" vertex="1" parent="1">
          <mxGeometry x="1580" y="450" width="320" height="80" as="geometry">
            <mxRectangle x="360" y="30" width="150" height="26" as="alternateBounds" />
          </mxGeometry>
        </mxCell>
        <mxCell id="C-2h_M_YmA_aKoKcY5in-73" value="+buildChassis(): void&#xa;+buildEngine(): void&#xa;+buildChangeSpeed(): void" style="text;strokeColor=none;fillColor=none;align=left;verticalAlign=top;spacingLeft=4;spacingRight=4;overflow=hidden;rotatable=0;points=[[0,0.5],[1,0.5]];portConstraint=eastwest;" vertex="1" parent="C-2h_M_YmA_aKoKcY5in-72">
          <mxGeometry y="26" width="320" height="54" as="geometry" />
        </mxCell>
        <mxCell id="C-2h_M_YmA_aKoKcY5in-74" value="carSUVBuilder" style="endArrow=open;html=1;endSize=12;startArrow=diamondThin;startSize=14;startFill=0;edgeStyle=orthogonalEdgeStyle;align=left;verticalAlign=bottom;entryX=0;entryY=0.118;entryDx=0;entryDy=0;entryPerimeter=0;" edge="1" parent="1" target="C-2h_M_YmA_aKoKcY5in-64">
          <mxGeometry x="-0.8623" y="3" relative="1" as="geometry">
            <mxPoint x="1030" y="242.5" as="sourcePoint" />
            <mxPoint x="1190" y="242.5" as="targetPoint" />
            <mxPoint as="offset" />
          </mxGeometry>
        </mxCell>
        <mxCell id="C-2h_M_YmA_aKoKcY5in-79" value="carSUVBuilder" style="endArrow=open;html=1;endSize=12;startArrow=diamondThin;startSize=14;startFill=0;edgeStyle=orthogonalEdgeStyle;align=left;verticalAlign=bottom;" edge="1" parent="1">
          <mxGeometry x="-0.9459" y="-10" relative="1" as="geometry">
            <mxPoint x="140" y="330" as="sourcePoint" />
            <mxPoint x="1150" y="240" as="targetPoint" />
            <mxPoint as="offset" />
          </mxGeometry>
        </mxCell>
        <mxCell id="C-2h_M_YmA_aKoKcY5in-80" value="carSUVBuilder" style="endArrow=open;html=1;endSize=12;startArrow=diamondThin;startSize=14;startFill=0;edgeStyle=orthogonalEdgeStyle;align=left;verticalAlign=bottom;" edge="1" parent="1">
          <mxGeometry x="-0.9277" y="-10" relative="1" as="geometry">
            <mxPoint x="491" y="330" as="sourcePoint" />
            <mxPoint x="1150" y="280" as="targetPoint" />
            <mxPoint as="offset" />
          </mxGeometry>
        </mxCell>
        <mxCell id="C-2h_M_YmA_aKoKcY5in-81" value="Extends" style="endArrow=block;endSize=16;endFill=0;html=1;entryX=0.388;entryY=0.985;entryDx=0;entryDy=0;entryPerimeter=0;exitX=1;exitY=0.333;exitDx=0;exitDy=0;exitPerimeter=0;" edge="1" parent="1" source="C-2h_M_YmA_aKoKcY5in-68" target="C-2h_M_YmA_aKoKcY5in-64">
          <mxGeometry x="-0.0148" width="160" relative="1" as="geometry">
            <mxPoint x="1450" y="490" as="sourcePoint" />
            <mxPoint x="1440" y="320" as="targetPoint" />
            <Array as="points">
              <mxPoint x="1444" y="500" />
            </Array>
            <mxPoint as="offset" />
          </mxGeometry>
        </mxCell>
        <mxCell id="C-2h_M_YmA_aKoKcY5in-82" value="Extends" style="endArrow=block;endSize=16;endFill=0;html=1;entryX=0.388;entryY=0.985;entryDx=0;entryDy=0;entryPerimeter=0;" edge="1" parent="1">
          <mxGeometry x="0.0353" width="160" relative="1" as="geometry">
            <mxPoint x="1580" y="501" as="sourcePoint" />
            <mxPoint x="1494.1599999999999" y="303" as="targetPoint" />
            <Array as="points">
              <mxPoint x="1494" y="501.02" />
            </Array>
            <mxPoint as="offset" />
          </mxGeometry>
        </mxCell>
        <mxCell id="C-2h_M_YmA_aKoKcY5in-87" value="CarSUV" style="swimlane;fontStyle=1;align=center;verticalAlign=top;childLayout=stackLayout;horizontal=1;startSize=26;horizontalStack=0;resizeParent=1;resizeParentMax=0;resizeLast=0;collapsible=1;marginBottom=0;" vertex="1" parent="1">
          <mxGeometry x="1320" y="-60" width="320" height="170" as="geometry">
            <mxRectangle x="360" y="30" width="150" height="26" as="alternateBounds" />
          </mxGeometry>
        </mxCell>
        <mxCell id="C-2h_M_YmA_aKoKcY5in-88" value="- chassis : String&#xa;- engine : String&#xa;- changeSpeed : String" style="text;strokeColor=none;fillColor=none;align=left;verticalAlign=top;spacingLeft=4;spacingRight=4;overflow=hidden;rotatable=0;points=[[0,0.5],[1,0.5]];portConstraint=eastwest;" vertex="1" parent="C-2h_M_YmA_aKoKcY5in-87">
          <mxGeometry y="26" width="320" height="54" as="geometry" />
        </mxCell>
        <mxCell id="C-2h_M_YmA_aKoKcY5in-89" value="+setChassis(): void&#xa;+setEngine(): void&#xa;+setChangeSpeed(): void&#xa;+getChassis(): String&#xa;+getEngine(): String&#xa;+getChangeSpeed(): String&#xa;" style="text;strokeColor=none;fillColor=none;align=left;verticalAlign=top;spacingLeft=4;spacingRight=4;overflow=hidden;rotatable=0;points=[[0,0.5],[1,0.5]];portConstraint=eastwest;" vertex="1" parent="C-2h_M_YmA_aKoKcY5in-87">
          <mxGeometry y="80" width="320" height="90" as="geometry" />
        </mxCell>
        <mxCell id="C-2h_M_YmA_aKoKcY5in-90" value="carSUV" style="endArrow=open;html=1;endSize=12;startArrow=diamondThin;startSize=14;startFill=1;edgeStyle=orthogonalEdgeStyle;align=left;verticalAlign=bottom;entryX=0.5;entryY=1;entryDx=0;entryDy=0;entryPerimeter=0;" edge="1" parent="1" source="C-2h_M_YmA_aKoKcY5in-63" target="C-2h_M_YmA_aKoKcY5in-89">
          <mxGeometry x="-0.6438" relative="1" as="geometry">
            <mxPoint x="1420" y="160" as="sourcePoint" />
            <mxPoint x="1500" y="120" as="targetPoint" />
            <mxPoint as="offset" />
          </mxGeometry>
        </mxCell>
      </root>
    </mxGraphModel>
  </diagram>
</mxfile>
